<svg width="29" height="28" viewBox="0 0 29 28" fill="none" xmlns="http://www.w3.org/2000/svg">
<path d="M26.6975 22.2255H25.1151V10.6344H28.9999L14.5 0L0 10.6344H3.8848V22.2255H2.30244C1.38522 22.2255 0.639114 22.9716 0.639114 23.8888V27.8548H28.3608V23.8888C28.3608 22.9716 27.6147 22.2255 26.6975 22.2255ZM3.38668 9.52555L14.5 1.37531L25.6133 9.52555H3.38668ZM24.0063 10.6344V22.2255H21.0909V10.6344H24.0063ZM19.9821 10.6344V22.2255H17.0667V10.6344H19.9821ZM15.9578 10.6344V22.2255H13.0424V10.6344H15.9578ZM11.9336 10.6344V22.2255H9.01792V10.6344H11.9336ZM7.90907 10.6344V22.2255H4.9937V10.6344H7.90907ZM27.2519 26.746H1.74802V23.8888C1.74802 23.5829 1.99679 23.3344 2.30244 23.3344H26.6975C27.0031 23.3344 27.2519 23.583 27.2519 23.8888V26.746Z" fill="#FF4400"/>
</svg>
