<svg width="26" height="25" viewBox="0 0 26 25" fill="none" xmlns="http://www.w3.org/2000/svg">
<path d="M12.0015 0H1.63655C0.734462 0 0 0.707158 0 1.57562V23.4244C0 24.2929 0.734508 25 1.63655 25H12.0015C12.9036 25 13.6381 24.2928 13.6381 23.4244V1.57562C13.6381 0.707158 12.904 0 12.0015 0ZM12.0015 24.3698H1.63655C1.14863 24.3698 0.74537 24.024 0.67034 23.5736C0.905561 24.0148 1.37778 24.3198 1.92723 24.3198H11.7108C12.2603 24.3198 12.7325 24.0143 12.9677 23.5736C12.8926 24.024 12.4894 24.3698 12.0015 24.3698ZM5.76635 1.1672C5.78205 1.20837 5.82308 1.23526 5.86803 1.23526H7.6504C7.69841 1.23526 7.74072 1.20503 7.75468 1.16087L7.82757 0.930632C7.83195 0.916352 7.82492 0.903741 7.82319 0.889461H11.7104C12.3724 0.889461 12.9106 1.40755 12.9106 2.04493V22.9542C12.9106 23.5916 12.3724 24.1097 11.7104 24.1097H1.92718C1.26515 24.1097 0.727023 23.5916 0.727023 22.9542V2.04537C0.727023 1.40799 1.26515 0.889901 1.92718 0.889901H5.67731C5.67557 0.905851 5.66946 0.92101 5.67598 0.936959L5.76635 1.1672ZM5.8903 0.889901H7.61243L7.56921 1.02519H5.94315L5.8903 0.889901ZM11.7108 0.679827H1.92718C1.37774 0.679827 0.905515 0.985293 0.670294 1.42605C0.74537 0.976022 1.14859 0.629824 1.63651 0.629824H12.0014C12.4893 0.629824 12.8926 0.975626 12.9677 1.42605C12.7325 0.985293 12.2603 0.679827 11.7108 0.679827Z" fill="#FF6634"/>
<path d="M1.14563 2.67856V20.9034C1.14563 20.9903 1.21893 21.0609 1.30929 21.0609H12.1927C12.283 21.0609 12.3564 20.9904 12.3564 20.9034V2.67856C12.3564 2.59161 12.2831 2.521 12.1927 2.521H1.30929C1.21893 2.521 1.14563 2.59156 1.14563 2.67856ZM1.47295 2.83613H12.0291V20.7458H1.47295V2.83613Z" fill="#FF6634"/>
<path d="M7.11914 21.9802H6.49156C6.19044 21.9802 5.94604 22.2159 5.94604 22.5054V22.6894C5.94604 22.9789 6.19044 23.2147 6.49156 23.2147H7.11914C7.41985 23.2147 7.66466 22.9789 7.66466 22.6894V22.5054C7.6647 22.2155 7.41985 21.9802 7.11914 21.9802ZM7.44646 22.6891C7.44646 22.8626 7.29937 23.0042 7.11914 23.0042H6.49156C6.31134 23.0042 6.16424 22.8626 6.16424 22.6891V22.505C6.16424 22.3315 6.31134 22.1899 6.49156 22.1899H7.11914C7.29937 22.1899 7.44646 22.3315 7.44646 22.505V22.6891Z" fill="#FF6634"/>
<path d="M9.42825 1.87359C9.60396 1.87359 9.7464 1.73645 9.7464 1.56729C9.7464 1.39812 9.60396 1.26099 9.42825 1.26099C9.25255 1.26099 9.11011 1.39812 9.11011 1.56729C9.11011 1.73645 9.25255 1.87359 9.42825 1.87359Z" fill="#FF6634"/>
<path d="M10.3191 22.4506H10.1004V22.3716L9.86475 22.5023L10.1004 22.6334V22.556H10.3191C10.5905 22.556 10.7009 22.5678 10.7009 22.6871C10.7009 22.8123 10.6464 22.8182 10.4736 22.8182H10.1917C10.1615 22.8182 10.1371 22.8417 10.1371 22.8707C10.1371 22.8997 10.1615 22.9232 10.1917 22.9232H10.4736C10.6237 22.9232 10.8101 22.9232 10.8101 22.6871C10.8101 22.4509 10.56 22.4506 10.3191 22.4506Z" fill="#FF6634"/>
<path d="M3.51892 22.2559H2.98691C2.95679 22.2559 2.93237 22.2794 2.93237 22.3084V22.8075C2.93237 22.8365 2.95679 22.86 2.98691 22.86H3.51892C3.54904 22.86 3.57346 22.8365 3.57346 22.8075V22.3084C3.57346 22.2794 3.54904 22.2559 3.51892 22.2559ZM3.46438 22.7546H3.0415V22.5445H3.23263V22.3605H3.46438V22.7546Z" fill="#FF6634"/>
<rect x="7.1875" y="7.8125" width="18.125" height="9.375" rx="2.8125" fill="white" stroke="#FF4400" stroke-width="0.625"/>
<path d="M13.4425 14.05L13.585 12.9925L12.745 13.6525L12.385 13.015L13.3675 12.625L12.3925 12.25L12.73 11.6425L13.5925 12.295L13.4425 11.2225H14.14L13.99 12.295L14.845 11.6425L15.175 12.2425L14.2 12.6325L15.1825 13.0225L14.83 13.645L13.99 12.9925L14.1325 14.05H13.4425ZM16.7189 16.75L16.9964 15.4375H15.9164V14.575H17.1839L17.4164 13.48H16.3139V12.6175H17.6039L17.8814 11.3275H18.7814L18.5039 12.6175H19.9289L20.2064 11.3275H21.1064L20.8364 12.6175H21.8114V13.48H20.6489L20.4164 14.575H21.4139V15.4375H20.2289L19.9514 16.75H19.0439L19.3289 15.4375H17.9039L17.6264 16.75H16.7189ZM18.0839 14.575H19.5089L19.7489 13.48H18.3239L18.0839 14.575Z" fill="#FF6634"/>
</svg>
