<svg width="29" height="29" viewBox="0 0 29 29" fill="none" xmlns="http://www.w3.org/2000/svg">
<circle cx="14.5" cy="14.5" r="14.5" fill="#FF4400"/>
<path d="M20.9996 18.4817V20.5893C21.0004 20.7849 20.9602 20.9786 20.8817 21.1578C20.8031 21.3371 20.6879 21.498 20.5435 21.6303C20.399 21.7626 20.2285 21.8633 20.0428 21.9259C19.8571 21.9886 19.6603 22.0119 19.465 21.9943C17.299 21.7594 15.2183 21.0207 13.3902 19.8376C11.6895 18.7589 10.2475 17.3198 9.16674 15.6224C7.9771 13.7897 7.23677 11.7031 7.00571 9.53156C6.98812 9.33729 7.01126 9.1415 7.07364 8.95664C7.13603 8.77178 7.2363 8.60191 7.36807 8.45785C7.49984 8.31378 7.66022 8.19868 7.839 8.11986C8.01779 8.04105 8.21106 8.00025 8.40651 8.00007H10.5183C10.8599 7.99671 11.1911 8.11744 11.4501 8.33976C11.7091 8.56208 11.8783 8.87081 11.9261 9.20841C12.0152 9.88287 12.1805 10.5451 12.4188 11.1825C12.5135 11.4339 12.534 11.7072 12.4779 11.9699C12.4218 12.2327 12.2913 12.4738 12.1021 12.6648L11.2081 13.557C12.2102 15.3158 13.6693 16.7721 15.4316 17.7721L16.3256 16.8799C16.517 16.6911 16.7586 16.5609 17.0218 16.5049C17.2851 16.4488 17.5589 16.4693 17.8108 16.5638C18.4495 16.8016 19.113 16.9666 19.7888 17.0556C20.1308 17.1037 20.4431 17.2756 20.6663 17.5386C20.8895 17.8015 21.0081 18.1372 20.9996 18.4817Z" stroke="white" stroke-linecap="round" stroke-linejoin="round"/>
</svg>
