<svg width="170" height="14" viewBox="0 0 170 14" fill="none" xmlns="http://www.w3.org/2000/svg">
<path d="M21.317 9.60693V3.23193H23.4116C23.9095 3.23193 24.3193 3.3139 24.6411 3.47783C24.9629 3.64175 25.1997 3.86336 25.3515 4.14265C25.5093 4.42193 25.5882 4.73765 25.5882 5.08979C25.5882 5.43586 25.5124 5.74854 25.3606 6.02783C25.2088 6.30711 24.972 6.53175 24.6502 6.70175C24.3284 6.86568 23.9156 6.94765 23.4116 6.94765H22.082V9.60693H21.317ZM22.082 6.30104H23.3934C23.9034 6.30104 24.2647 6.19479 24.4772 5.98229C24.6957 5.76372 24.805 5.46622 24.805 5.08979C24.805 4.70729 24.6957 4.40979 24.4772 4.19729C24.2647 3.97872 23.9034 3.86943 23.3934 3.86943H22.082V6.30104ZM27.8347 9.71622C27.4582 9.71622 27.1455 9.65247 26.8966 9.52497C26.6477 9.39747 26.4625 9.22747 26.3411 9.01497C26.2196 8.80247 26.1589 8.57175 26.1589 8.32283C26.1589 7.8614 26.335 7.50622 26.6871 7.25729C27.0393 7.00836 27.5189 6.8839 28.1261 6.8839H29.3464V6.82925C29.3464 6.43461 29.2432 6.13711 29.0368 5.93675C28.8304 5.73033 28.5541 5.62711 28.208 5.62711C27.9105 5.62711 27.6525 5.703 27.4339 5.85479C27.2214 6.0005 27.0879 6.21604 27.0332 6.5014H26.25C26.2804 6.17354 26.3896 5.89729 26.5779 5.67265C26.7722 5.448 27.012 5.278 27.2973 5.16265C27.5827 5.04122 27.8863 4.9805 28.208 4.9805C28.8395 4.9805 29.313 5.1505 29.6288 5.4905C29.9505 5.82443 30.1114 6.27068 30.1114 6.82925V9.60693H29.4284L29.3829 8.7964C29.2554 9.0514 29.0672 9.26997 28.8182 9.45211C28.5754 9.62818 28.2475 9.71622 27.8347 9.71622ZM27.953 9.06961C28.2445 9.06961 28.4934 8.99372 28.6998 8.84193C28.9123 8.69015 29.0732 8.49283 29.1825 8.24997C29.2918 8.00711 29.3464 7.75211 29.3464 7.48497V7.47586H28.1898C27.7405 7.47586 27.4218 7.55479 27.2336 7.71265C27.0514 7.86443 26.9604 8.05568 26.9604 8.2864C26.9604 8.52318 27.0454 8.71443 27.2154 8.86015C27.3914 8.99979 27.6373 9.06961 27.953 9.06961ZM31.6175 11.6105L32.7376 9.16979H32.4735L30.6794 5.08979H31.5082L33.0017 8.60515L34.5864 5.08979H35.3787L32.4189 11.6105H31.6175ZM36.1862 9.60693V5.08979H36.8783L36.933 5.7455C37.0787 5.50265 37.273 5.31443 37.5158 5.18086C37.7587 5.04729 38.0319 4.9805 38.3355 4.9805C38.6937 4.9805 39.0003 5.05336 39.2553 5.19908C39.5164 5.34479 39.7167 5.5664 39.8564 5.8639C40.0142 5.59068 40.2298 5.37515 40.503 5.21729C40.7823 5.05943 41.0828 4.9805 41.4046 4.9805C41.9449 4.9805 42.376 5.14443 42.6978 5.47229C43.0196 5.79408 43.1805 6.29193 43.1805 6.96586V9.60693H42.4246V7.04783C42.4246 6.58033 42.3305 6.22818 42.1423 5.9914C41.954 5.75461 41.6839 5.63622 41.3317 5.63622C40.9674 5.63622 40.6639 5.7789 40.421 6.06425C40.1842 6.34354 40.0658 6.74425 40.0658 7.2664V9.60693H39.3008V7.04783C39.3008 6.58033 39.2067 6.22818 39.0185 5.9914C38.8303 5.75461 38.5601 5.63622 38.208 5.63622C37.8498 5.63622 37.5492 5.7789 37.3064 6.06425C37.0696 6.34354 36.9512 6.74425 36.9512 7.2664V9.60693H36.1862ZM46.3637 9.71622C45.9326 9.71622 45.5501 9.61908 45.2162 9.42479C44.8823 9.22443 44.6182 8.94818 44.4239 8.59604C44.2357 8.2439 44.1416 7.828 44.1416 7.34836C44.1416 6.87479 44.2357 6.46193 44.4239 6.10979C44.6121 5.75158 44.8732 5.47533 45.2071 5.28104C45.5471 5.08068 45.9387 4.9805 46.3819 4.9805C46.8191 4.9805 47.1955 5.08068 47.5112 5.28104C47.833 5.47533 48.0789 5.73336 48.2489 6.05515C48.4189 6.37693 48.5039 6.723 48.5039 7.09336C48.5039 7.16015 48.5008 7.22693 48.4948 7.29372C48.4948 7.3605 48.4948 7.4364 48.4948 7.5214H44.8975C44.9157 7.86747 44.9946 8.15586 45.1342 8.38658C45.28 8.61122 45.4591 8.78122 45.6716 8.89658C45.8901 9.01193 46.1208 9.06961 46.3637 9.06961C46.6794 9.06961 46.9435 8.99675 47.156 8.85104C47.3685 8.70533 47.5233 8.508 47.6205 8.25908H48.3764C48.255 8.678 48.0212 9.02711 47.6751 9.3064C47.3351 9.57961 46.898 9.71622 46.3637 9.71622ZM46.3637 5.62711C45.9994 5.62711 45.6746 5.73943 45.3892 5.96408C45.11 6.18265 44.9491 6.50443 44.9066 6.92943H47.748C47.7298 6.52265 47.5901 6.2039 47.3291 5.97318C47.068 5.74247 46.7462 5.62711 46.3637 5.62711ZM49.5178 9.60693V5.08979H50.21L50.2555 5.90033C50.4012 5.61497 50.6107 5.39033 50.8839 5.2264C51.1571 5.06247 51.4668 4.9805 51.8128 4.9805C52.3471 4.9805 52.7721 5.14443 53.0878 5.47229C53.4096 5.79408 53.5705 6.29193 53.5705 6.96586V9.60693H52.8055V7.04783C52.8055 6.10675 52.4169 5.63622 51.6398 5.63622C51.2512 5.63622 50.9264 5.7789 50.6653 6.06425C50.4103 6.34354 50.2828 6.74425 50.2828 7.2664V9.60693H49.5178ZM56.5145 9.60693C56.1017 9.60693 55.7769 9.50676 55.5401 9.3064C55.3033 9.10604 55.1849 8.74479 55.1849 8.22265V5.7364H54.4017V5.08979H55.1849L55.2851 4.00604H55.9499V5.08979H57.2795V5.7364H55.9499V8.22265C55.9499 8.508 56.0076 8.70229 56.1229 8.8055C56.2383 8.90265 56.4417 8.95122 56.7331 8.95122H57.2067V9.60693H56.5145ZM62.392 9.71622C61.8516 9.71622 61.4023 9.57961 61.0441 9.3064C60.6859 9.03318 60.4765 8.66283 60.4157 8.19533H61.199C61.2475 8.43211 61.372 8.63854 61.5723 8.81461C61.7788 8.98461 62.055 9.06961 62.4011 9.06961C62.7229 9.06961 62.9597 9.00283 63.1115 8.86925C63.2632 8.72961 63.3391 8.56568 63.3391 8.37747C63.3391 8.10425 63.239 7.92211 63.0386 7.83104C62.8443 7.73997 62.5681 7.658 62.2098 7.58515C61.967 7.53658 61.7241 7.46675 61.4813 7.37568C61.2384 7.28461 61.035 7.15711 60.8711 6.99318C60.7072 6.82318 60.6252 6.60158 60.6252 6.32836C60.6252 5.93372 60.7709 5.61193 61.0623 5.363C61.3598 5.108 61.7606 4.9805 62.2645 4.9805C62.7441 4.9805 63.1357 5.10193 63.4393 5.34479C63.749 5.58158 63.9281 5.92158 63.9766 6.36479H63.2207C63.1904 6.13408 63.0902 5.95497 62.9202 5.82747C62.7563 5.6939 62.5347 5.62711 62.2554 5.62711C61.9822 5.62711 61.7697 5.68479 61.6179 5.80015C61.4722 5.9155 61.3993 6.06729 61.3993 6.2555C61.3993 6.43765 61.4934 6.58033 61.6816 6.68354C61.8759 6.78675 62.137 6.87479 62.4648 6.94765C62.7441 7.00836 63.0082 7.08425 63.2572 7.17533C63.5122 7.26033 63.7186 7.39086 63.8765 7.56693C64.0404 7.73693 64.1223 7.98586 64.1223 8.31372C64.1284 8.7205 63.9736 9.05747 63.6579 9.32461C63.3482 9.58568 62.9263 9.71622 62.392 9.71622ZM67.2461 9.71622C66.815 9.71622 66.4325 9.61908 66.0986 9.42479C65.7647 9.22443 65.5006 8.94818 65.3063 8.59604C65.1181 8.2439 65.024 7.828 65.024 7.34836C65.024 6.87479 65.1181 6.46193 65.3063 6.10979C65.4945 5.75158 65.7556 5.47533 66.0895 5.28104C66.4295 5.08068 66.8211 4.9805 67.2643 4.9805C67.7015 4.9805 68.0779 5.08068 68.3936 5.28104C68.7154 5.47533 68.9613 5.73336 69.1313 6.05515C69.3013 6.37693 69.3863 6.723 69.3863 7.09336C69.3863 7.16015 69.3832 7.22693 69.3772 7.29372C69.3772 7.3605 69.3772 7.4364 69.3772 7.5214H65.7798C65.7981 7.86747 65.877 8.15586 66.0166 8.38658C66.1623 8.61122 66.3415 8.78122 66.554 8.89658C66.7725 9.01193 67.0032 9.06961 67.2461 9.06961C67.5618 9.06961 67.8259 8.99675 68.0384 8.85104C68.2509 8.70533 68.4057 8.508 68.5029 8.25908H69.2588C69.1373 8.678 68.9036 9.02711 68.5575 9.3064C68.2175 9.57961 67.7804 9.71622 67.2461 9.71622ZM67.2461 5.62711C66.8818 5.62711 66.557 5.73943 66.2716 5.96408C65.9923 6.18265 65.8315 6.50443 65.789 6.92943H68.6304C68.6122 6.52265 68.4725 6.2039 68.2115 5.97318C67.9504 5.74247 67.6286 5.62711 67.2461 5.62711ZM72.4767 9.71622C72.0456 9.71622 71.657 9.61908 71.3109 9.42479C70.9709 9.22443 70.7008 8.94818 70.5004 8.59604C70.3061 8.23783 70.209 7.82193 70.209 7.34836C70.209 6.87479 70.3061 6.46193 70.5004 6.10979C70.7008 5.75158 70.9709 5.47533 71.3109 5.28104C71.657 5.08068 72.0456 4.9805 72.4767 4.9805C73.0109 4.9805 73.4602 5.12015 73.8245 5.39943C74.1949 5.67872 74.4286 6.05211 74.5258 6.51961H73.7426C73.6818 6.24033 73.5331 6.02479 73.2963 5.873C73.0595 5.71515 72.7833 5.63622 72.4675 5.63622C72.2125 5.63622 71.9727 5.69997 71.7481 5.82747C71.5234 5.95497 71.3413 6.14622 71.2017 6.40122C71.062 6.65622 70.9922 6.97193 70.9922 7.34836C70.9922 7.72479 71.062 8.0405 71.2017 8.2955C71.3413 8.5505 71.5234 8.74479 71.7481 8.87836C71.9727 9.00586 72.2125 9.06961 72.4675 9.06961C72.7833 9.06961 73.0595 8.99372 73.2963 8.84193C73.5331 8.68408 73.6818 8.46247 73.7426 8.17711H74.5258C74.4347 8.63247 74.204 9.00283 73.8336 9.28818C73.4633 9.57354 73.0109 9.71622 72.4767 9.71622ZM77.2425 9.71622C76.7083 9.71622 76.2833 9.55533 75.9675 9.23354C75.6518 8.90568 75.494 8.40479 75.494 7.73086V5.08979H76.259V7.6489C76.259 8.58997 76.6445 9.0605 77.4156 9.0605C77.8102 9.0605 78.135 8.92086 78.39 8.64158C78.6511 8.35622 78.7816 7.95247 78.7816 7.43033V5.08979H79.5466V9.60693H78.8545L78.7999 8.7964C78.6602 9.08175 78.4508 9.3064 78.1715 9.47033C77.8983 9.63426 77.5886 9.71622 77.2425 9.71622ZM80.8059 9.60693V5.08979H81.498L81.5617 5.95497C81.7014 5.65747 81.9139 5.42068 82.1992 5.24461C82.4846 5.06854 82.8367 4.9805 83.2557 4.9805V5.78193H83.0462C82.7791 5.78193 82.5332 5.8305 82.3085 5.92765C82.0839 6.01872 81.9048 6.17658 81.7712 6.40122C81.6376 6.62586 81.5709 6.9355 81.5709 7.33015V9.60693H80.8059ZM85.9762 9.71622C85.5451 9.71622 85.1626 9.61908 84.8287 9.42479C84.4948 9.22443 84.2307 8.94818 84.0364 8.59604C83.8482 8.2439 83.7541 7.828 83.7541 7.34836C83.7541 6.87479 83.8482 6.46193 84.0364 6.10979C84.2246 5.75158 84.4857 5.47533 84.8196 5.28104C85.1596 5.08068 85.5512 4.9805 85.9944 4.9805C86.4316 4.9805 86.808 5.08068 87.1237 5.28104C87.4455 5.47533 87.6914 5.73336 87.8614 6.05515C88.0314 6.37693 88.1164 6.723 88.1164 7.09336C88.1164 7.16015 88.1134 7.22693 88.1073 7.29372C88.1073 7.3605 88.1073 7.4364 88.1073 7.5214H84.51C84.5282 7.86747 84.6071 8.15586 84.7468 8.38658C84.8925 8.61122 85.0716 8.78122 85.2841 8.89658C85.5026 9.01193 85.7334 9.06961 85.9762 9.06961C86.2919 9.06961 86.556 8.99675 86.7685 8.85104C86.981 8.70533 87.1359 8.508 87.233 8.25908H87.9889C87.8675 8.678 87.6337 9.02711 87.2876 9.3064C86.9476 9.57961 86.5105 9.71622 85.9762 9.71622ZM85.9762 5.62711C85.6119 5.62711 85.2871 5.73943 85.0018 5.96408C84.7225 6.18265 84.5616 6.50443 84.5191 6.92943H87.3605C87.3423 6.52265 87.2026 6.2039 86.9416 5.97318C86.6805 5.74247 86.3587 5.62711 85.9762 5.62711ZM91.1795 9.71622C90.7302 9.71622 90.3355 9.61301 89.9955 9.40658C89.6616 9.20015 89.4005 8.91783 89.2123 8.55961C89.0302 8.2014 88.9391 7.79461 88.9391 7.33925C88.9391 6.8839 89.0332 6.48015 89.2214 6.128C89.4096 5.76979 89.6707 5.4905 90.0046 5.29015C90.3386 5.08372 90.7332 4.9805 91.1886 4.9805C91.5589 4.9805 91.8868 5.0564 92.1721 5.20818C92.4575 5.35997 92.6791 5.57247 92.837 5.84568V3.04979H93.602V9.60693H92.9098L92.837 8.86015C92.6912 9.07872 92.4818 9.27604 92.2086 9.45211C91.9354 9.62818 91.5923 9.71622 91.1795 9.71622ZM91.2614 9.0514C91.565 9.0514 91.8321 8.98158 92.0629 8.84193C92.2996 8.69622 92.4818 8.49586 92.6093 8.24086C92.7429 7.98586 92.8096 7.68836 92.8096 7.34836C92.8096 7.00836 92.7429 6.71086 92.6093 6.45586C92.4818 6.20086 92.2996 6.00354 92.0629 5.8639C91.8321 5.71818 91.565 5.64533 91.2614 5.64533C90.9639 5.64533 90.6968 5.71818 90.46 5.8639C90.2293 6.00354 90.0471 6.20086 89.9136 6.45586C89.7861 6.71086 89.7223 7.00836 89.7223 7.34836C89.7223 7.68836 89.7861 7.98586 89.9136 8.24086C90.0471 8.49586 90.2293 8.69622 90.46 8.84193C90.6968 8.98158 90.9639 9.0514 91.2614 9.0514ZM99.6726 9.71622C99.3022 9.71622 98.9713 9.64033 98.6799 9.48854C98.3945 9.33675 98.176 9.12425 98.0242 8.85104L97.9513 9.60693H97.2592V3.04979H98.0242V5.83658C98.1699 5.618 98.3763 5.42068 98.6435 5.24461C98.9167 5.06854 99.2628 4.9805 99.6817 4.9805C100.131 4.9805 100.523 5.08372 100.857 5.29015C101.19 5.49658 101.448 5.7789 101.631 6.13711C101.819 6.49533 101.913 6.90211 101.913 7.35747C101.913 7.81283 101.819 8.21961 101.631 8.57783C101.448 8.92997 101.187 9.20925 100.847 9.41568C100.513 9.61604 100.122 9.71622 99.6726 9.71622ZM99.5906 9.0514C99.8942 9.0514 100.161 8.98158 100.392 8.84193C100.623 8.69622 100.805 8.49586 100.938 8.24086C101.072 7.98586 101.139 7.68836 101.139 7.34836C101.139 7.00836 101.072 6.71086 100.938 6.45586C100.805 6.20086 100.623 6.00354 100.392 5.8639C100.161 5.71818 99.8942 5.64533 99.5906 5.64533C99.287 5.64533 99.0199 5.71818 98.7892 5.8639C98.5585 6.00354 98.3763 6.20086 98.2428 6.45586C98.1092 6.71086 98.0424 7.00836 98.0424 7.34836C98.0424 7.68836 98.1092 7.98586 98.2428 8.24086C98.3763 8.49586 98.5585 8.69622 98.7892 8.84193C99.0199 8.98158 99.287 9.0514 99.5906 9.0514ZM103.105 11.6105L104.225 9.16979H103.961L102.167 5.08979H102.996L104.489 8.60515L106.074 5.08979H106.866L103.906 11.6105H103.105ZM111.368 9.60693L109.683 3.23193H110.931L112.078 8.30461L113.426 3.23193H114.71L116.022 8.30461L117.169 3.23193H118.426L116.696 9.60693H115.311L114.046 4.88033L112.743 9.60693H111.368ZM120.285 9.71622C119.896 9.71622 119.578 9.65551 119.329 9.53408C119.08 9.40658 118.895 9.23961 118.773 9.03318C118.652 8.82675 118.591 8.59908 118.591 8.35015C118.591 7.93122 118.755 7.59122 119.083 7.33015C119.411 7.06908 119.903 6.93854 120.558 6.93854H121.706V6.82925C121.706 6.51961 121.618 6.29193 121.442 6.14622C121.266 6.0005 121.047 5.92765 120.786 5.92765C120.549 5.92765 120.343 5.98533 120.167 6.10068C119.991 6.20997 119.881 6.3739 119.839 6.59247H118.7C118.731 6.26461 118.84 5.97925 119.028 5.7364C119.223 5.49354 119.471 5.30836 119.775 5.18086C120.079 5.04729 120.419 4.9805 120.795 4.9805C121.439 4.9805 121.946 5.1414 122.316 5.46318C122.686 5.78497 122.871 6.24033 122.871 6.82925V9.60693H121.879L121.77 8.87836C121.636 9.12122 121.448 9.32158 121.205 9.47943C120.968 9.63729 120.661 9.71622 120.285 9.71622ZM120.549 8.8055C120.883 8.8055 121.141 8.69622 121.323 8.47765C121.511 8.25908 121.63 7.9889 121.678 7.66711H120.686C120.376 7.66711 120.155 7.72479 120.021 7.84015C119.887 7.94943 119.821 8.08604 119.821 8.24997C119.821 8.42604 119.887 8.56265 120.021 8.65979C120.155 8.75693 120.331 8.8055 120.549 8.8055ZM124.397 11.6105L125.445 9.3064H125.171L123.414 5.08979H124.68L125.946 8.26818L127.266 5.08979H128.505L125.636 11.6105H124.397ZM130.468 9.71622C130.08 9.71622 129.761 9.65551 129.512 9.53408C129.263 9.40658 129.078 9.23961 128.957 9.03318C128.835 8.82675 128.774 8.59908 128.774 8.35015C128.774 7.93122 128.938 7.59122 129.266 7.33015C129.594 7.06908 130.086 6.93854 130.742 6.93854H131.889V6.82925C131.889 6.51961 131.801 6.29193 131.625 6.14622C131.449 6.0005 131.23 5.92765 130.969 5.92765C130.732 5.92765 130.526 5.98533 130.35 6.10068C130.174 6.20997 130.065 6.3739 130.022 6.59247H128.884C128.914 6.26461 129.023 5.97925 129.212 5.7364C129.406 5.49354 129.655 5.30836 129.958 5.18086C130.262 5.04729 130.602 4.9805 130.978 4.9805C131.622 4.9805 132.129 5.1414 132.499 5.46318C132.87 5.78497 133.055 6.24033 133.055 6.82925V9.60693H132.062L131.953 8.87836C131.819 9.12122 131.631 9.32158 131.388 9.47943C131.151 9.63729 130.845 9.71622 130.468 9.71622ZM130.732 8.8055C131.066 8.8055 131.324 8.69622 131.507 8.47765C131.695 8.25908 131.813 7.9889 131.862 7.66711H130.869C130.559 7.66711 130.338 7.72479 130.204 7.84015C130.071 7.94943 130.004 8.08604 130.004 8.24997C130.004 8.42604 130.071 8.56265 130.204 8.65979C130.338 8.75693 130.514 8.8055 130.732 8.8055ZM137.182 9.71622C136.544 9.71622 135.986 9.57658 135.506 9.29729C135.032 9.018 134.659 8.63247 134.386 8.14068C134.119 7.64283 133.985 7.06908 133.985 6.41943C133.985 5.76979 134.119 5.19908 134.386 4.70729C134.659 4.20943 135.032 3.82086 135.506 3.54158C135.986 3.26229 136.544 3.12265 137.182 3.12265C137.813 3.12265 138.369 3.26229 138.848 3.54158C139.328 3.82086 139.701 4.20943 139.968 4.70729C140.236 5.19908 140.369 5.76979 140.369 6.41943C140.369 7.02658 140.251 7.56997 140.014 8.04961C139.777 8.52318 139.449 8.89961 139.03 9.1789L140.506 10.7635H139.058L138.056 9.61604C137.777 9.68283 137.485 9.71622 137.182 9.71622ZM137.182 8.6689C137.789 8.6689 138.271 8.46854 138.63 8.06783C138.994 7.66711 139.176 7.11765 139.176 6.41943C139.176 5.72122 138.994 5.17175 138.63 4.77104C138.271 4.37033 137.789 4.16997 137.182 4.16997C136.574 4.16997 136.089 4.37033 135.724 4.77104C135.36 5.17175 135.178 5.72122 135.178 6.41943C135.178 7.11765 135.36 7.66711 135.724 8.06783C136.089 8.46854 136.574 8.6689 137.182 8.6689ZM143.136 9.71622C142.571 9.71622 142.134 9.54015 141.825 9.188C141.521 8.83586 141.369 8.31979 141.369 7.63979V5.08979H142.526V7.5305C142.526 7.91908 142.605 8.21658 142.763 8.423C142.921 8.62943 143.17 8.73265 143.51 8.73265C143.831 8.73265 144.095 8.61729 144.302 8.38658C144.514 8.15586 144.621 7.83408 144.621 7.42122V5.08979H145.786V9.60693H144.757L144.666 8.84193C144.526 9.10908 144.323 9.32158 144.056 9.47943C143.795 9.63729 143.488 9.71622 143.136 9.71622ZM147.611 4.38854C147.399 4.38854 147.223 4.32479 147.083 4.19729C146.95 4.06979 146.883 3.9089 146.883 3.71461C146.883 3.52033 146.95 3.36247 147.083 3.24104C147.223 3.11354 147.399 3.04979 147.611 3.04979C147.824 3.04979 147.997 3.11354 148.13 3.24104C148.27 3.36247 148.34 3.52033 148.34 3.71461C148.34 3.9089 148.27 4.06979 148.13 4.19729C147.997 4.32479 147.824 4.38854 147.611 4.38854ZM147.029 9.60693V5.08979H148.194V9.60693H147.029ZM151.624 9.71622C151.163 9.71622 150.756 9.61604 150.404 9.41568C150.052 9.21533 149.772 8.93604 149.566 8.57783C149.365 8.21961 149.265 7.80979 149.265 7.34836C149.265 6.88693 149.365 6.47711 149.566 6.1189C149.772 5.76068 150.052 5.4814 150.404 5.28104C150.756 5.08068 151.163 4.9805 151.624 4.9805C152.201 4.9805 152.687 5.13229 153.081 5.43586C153.476 5.73336 153.728 6.14622 153.837 6.67443H152.608C152.547 6.45586 152.425 6.28586 152.243 6.16443C152.067 6.03693 151.858 5.97318 151.615 5.97318C151.293 5.97318 151.02 6.09461 150.795 6.33747C150.571 6.58033 150.458 6.91729 150.458 7.34836C150.458 7.77943 150.571 8.1164 150.795 8.35925C151.02 8.60211 151.293 8.72354 151.615 8.72354C151.858 8.72354 152.067 8.66283 152.243 8.5414C152.425 8.41997 152.547 8.24693 152.608 8.02229H153.837C153.728 8.53229 153.476 8.94211 153.081 9.25175C152.687 9.5614 152.201 9.71622 151.624 9.71622ZM154.872 9.60693V3.04979H156.037V6.92033L157.64 5.08979H159.025L157.176 7.148L159.325 9.60693H157.868L156.037 7.33925V9.60693H154.872Z" fill="black"/>
<path d="M10.0177 4.45247H9.46119V3.33938C9.46119 1.80331 8.21453 0.556641 6.67845 0.556641C5.14238 0.556641 3.89572 1.80331 3.89572 3.33938V4.45247H3.33917C2.72697 4.45247 2.22607 4.95337 2.22607 5.56557V11.131C2.22607 11.7432 2.72697 12.2441 3.33917 12.2441H10.0177C10.6299 12.2441 11.1308 11.7432 11.1308 11.131V5.56557C11.1308 4.95337 10.6299 4.45247 10.0177 4.45247ZM6.67845 9.4614C6.06625 9.4614 5.56536 8.96051 5.56536 8.34831C5.56536 7.7361 6.06625 7.23521 6.67845 7.23521C7.29066 7.23521 7.79155 7.7361 7.79155 8.34831C7.79155 8.96051 7.29066 9.4614 6.67845 9.4614ZM8.40375 4.45247H4.95316V3.33938C4.95316 2.38768 5.72676 1.61408 6.67845 1.61408C7.63015 1.61408 8.40375 2.38768 8.40375 3.33938V4.45247Z" fill="black"/>
</svg>
